<svg width="16" height="16" viewBox="0 0 16 16" fill="none" xmlns="http://www.w3.org/2000/svg">
<g clip-path="url(#clip0_85_139)">
<path d="M4.5676 15.6249C4.0588 15.6227 3.5638 15.4593 3.1536 15.1583C2.73441 14.8634 2.42161 14.441 2.26173 13.9541C2.10186 13.4671 2.10345 12.9416 2.26627 12.4556L3.04627 10.0429L0.992936 8.54159C0.581231 8.24079 0.275215 7.81748 0.11867 7.33222C-0.0378739 6.84697 -0.0369247 6.32463 0.121382 5.83994C0.279689 5.35526 0.587242 4.93306 1.00004 4.63376C1.41283 4.33446 1.90972 4.17339 2.4196 4.17359H4.93294L5.69627 1.79359C5.85293 1.30622 6.16023 0.881141 6.57392 0.57958C6.98761 0.27802 7.48633 0.11554 7.99827 0.11554C8.5102 0.11554 9.00893 0.27802 9.42262 0.57958C9.83631 0.881141 10.1436 1.30622 10.3003 1.79359L11.0663 4.17359H13.5796C14.0894 4.17353 14.5862 4.3347 14.9989 4.63405C15.4116 4.9334 15.719 5.3556 15.8773 5.84026C16.0355 6.32491 16.0364 6.84719 15.8798 7.33238C15.7233 7.81758 15.4173 8.24083 15.0056 8.54159L12.9529 10.0429L13.7329 12.4556C13.8902 12.9423 13.889 13.4663 13.7296 13.9523C13.5702 14.4382 13.2608 14.8611 12.8459 15.1601C12.4309 15.4591 11.9318 15.6188 11.4204 15.6162C10.9089 15.6136 10.4115 15.4488 9.9996 15.1456L7.9996 13.6749L5.9996 15.1463C5.58577 15.4549 5.08385 15.6227 4.5676 15.6249ZM2.4196 6.17359C2.33161 6.17358 2.24586 6.20139 2.17461 6.25304C2.10337 6.30469 2.05027 6.37753 2.02291 6.46117C1.99555 6.5448 1.99533 6.63494 2.02227 6.71871C2.04921 6.80248 2.10195 6.87559 2.17294 6.92759L4.81027 8.85493C4.98009 8.9791 5.10643 9.15367 5.1713 9.35379C5.23617 9.55392 5.23628 9.76941 5.1716 9.96959L4.1716 13.0696C4.14385 13.1537 4.14357 13.2444 4.17079 13.3287C4.19801 13.4129 4.25133 13.4864 4.32303 13.5383C4.39473 13.5903 4.4811 13.6181 4.56965 13.6177C4.6582 13.6173 4.74434 13.5888 4.8156 13.5363L7.40827 11.6289C7.58003 11.5025 7.78769 11.4344 8.00094 11.4344C8.21418 11.4344 8.42184 11.5025 8.5936 11.6289L11.1863 13.5356C11.2574 13.5886 11.3437 13.6176 11.4325 13.6182C11.5212 13.6188 11.6079 13.591 11.6797 13.5389C11.7516 13.4868 11.805 13.4131 11.8321 13.3286C11.8591 13.2441 11.8585 13.1531 11.8303 13.0689L10.8303 9.96893C10.7656 9.76874 10.7657 9.55325 10.8306 9.35313C10.8954 9.153 11.0218 8.97843 11.1916 8.85426L13.8283 6.92693C13.8992 6.87496 13.9519 6.80191 13.9789 6.71821C14.0058 6.6345 14.0057 6.54442 13.9784 6.46082C13.9511 6.37721 13.8981 6.30436 13.827 6.25266C13.7559 6.20097 13.6702 6.17306 13.5823 6.17293H10.3329C10.1211 6.17288 9.91482 6.10558 9.74373 5.98073C9.57264 5.85589 9.4456 5.67994 9.38093 5.47826L8.3996 2.40426C8.37257 2.32013 8.31954 2.24674 8.24813 2.19468C8.17673 2.14262 8.09064 2.11457 8.00227 2.11457C7.9139 2.11457 7.82781 2.14262 7.75641 2.19468C7.685 2.24674 7.63196 2.32013 7.60494 2.40426L6.61627 5.47893C6.5517 5.68029 6.42497 5.856 6.25428 5.98081C6.08359 6.10563 5.87773 6.17312 5.66627 6.17359H2.4196Z" fill="#B0B4B7"/>
</g>
<defs>
<clipPath id="clip0_85_139">
<rect width="16" height="16" fill="white"/>
</clipPath>
</defs>
</svg>
