<svg width="16" height="16" viewBox="0 0 16 16" fill="none" xmlns="http://www.w3.org/2000/svg">
<path d="M0.884795 8.2669L3.25813 10.0002L2.3568 12.7916C2.21114 13.2245 2.20929 13.6929 2.35153 14.127C2.49378 14.561 2.77249 14.9375 3.14613 15.2002C3.51336 15.4714 3.95839 15.6167 4.4149 15.6144C4.87141 15.6121 5.31496 15.4624 5.67946 15.1876L8.00013 13.4796L10.3215 15.1856C10.688 15.4552 11.1307 15.6017 11.5857 15.6039C12.0408 15.6061 12.4848 15.464 12.854 15.1979C13.2232 14.9319 13.4985 14.5556 13.6403 14.1232C13.7822 13.6908 13.7833 13.2246 13.6435 12.7916L12.7421 10.0002L15.1155 8.2669C15.4816 7.99924 15.7537 7.62273 15.893 7.19116C16.0324 6.75959 16.0317 6.29502 15.8912 5.86383C15.7508 5.43263 15.4776 5.05685 15.1108 4.79017C14.744 4.52349 14.3023 4.37955 13.8488 4.3789H10.9335L10.0488 1.62157C9.90968 1.18754 9.63631 0.80891 9.26811 0.540278C8.89991 0.271645 8.45591 0.126892 8.00013 0.126892C7.54435 0.126892 7.10035 0.271645 6.73215 0.540278C6.36395 0.80891 6.09058 1.18754 5.95146 1.62157L5.0668 4.3789H2.15413C1.70062 4.37955 1.25892 4.52349 0.892115 4.79017C0.525307 5.05685 0.252156 5.43263 0.111676 5.86383C-0.0288034 6.29502 -0.0294251 6.75959 0.1099 7.19116C0.249225 7.62273 0.521369 7.99924 0.887462 8.2669H0.884795Z" fill="#FFE605"/>
</svg>
