<svg width="101" height="41" viewBox="0 0 101 41" fill="none" xmlns="http://www.w3.org/2000/svg">
<rect x="53.5" width="41" height="53" rx="8" transform="rotate(90 53.5 0)" fill="#39DB4A"/>
<path d="M61.5078 21.4883C60.8359 20.8086 60.3633 20.207 60.0898 19.6836C59.8164 19.1523 59.6797 18.5859 59.6797 17.9844C59.6797 17.0781 59.9531 16.2266 60.5 15.4297C61.0547 14.6328 61.793 14 62.7148 13.5312C63.6445 13.0625 64.6406 12.8281 65.7031 12.8281C66.9062 12.8281 67.832 13.0781 68.4805 13.5781C69.1289 14.0781 69.4531 14.7852 69.4531 15.6992C69.4531 16.1367 69.3359 16.5898 69.1016 17.0586C68.8672 17.5273 68.543 17.9648 68.1289 18.3711C67.8477 18.6523 67.5859 18.8672 67.3438 19.0156C67.1016 19.1562 66.8984 19.2266 66.7344 19.2266C66.5312 19.2266 66.4297 19.0703 66.4297 18.7578C66.4297 18.7656 66.4453 18.6445 66.4766 18.3945C66.5234 18.0273 66.5469 17.6992 66.5469 17.4102C66.5469 17.0039 66.4844 16.5977 66.3594 16.1914C66.2422 15.7773 66.0859 15.4336 65.8906 15.1602C65.7031 14.8789 65.5234 14.7383 65.3516 14.7383C65.2656 14.7383 65.168 14.8047 65.0586 14.9375C64.8477 15.1562 64.6836 15.4297 64.5664 15.7578C64.4492 16.0781 64.3906 16.3789 64.3906 16.6602C64.3906 17.0117 64.4414 17.3398 64.543 17.6445C64.6445 17.9414 64.8203 18.2461 65.0703 18.5586C65.3203 18.8711 65.6523 19.2148 66.0664 19.5898C66.7227 20.1836 67.2266 20.7031 67.5781 21.1484C67.9375 21.5938 68.1992 22.0391 68.3633 22.4844C68.5273 22.9219 68.6094 23.3984 68.6094 23.9141C68.6094 24.8203 68.3711 25.6953 67.8945 26.5391C67.418 27.3828 66.7852 28.0664 65.9961 28.5898C65.2148 29.1055 64.4062 29.3633 63.5703 29.3633C62.7734 29.3633 61.9961 29.1914 61.2383 28.8477C60.4805 28.5039 59.7695 28.0117 59.1055 27.3711C58.418 26.6914 58.0742 26.0898 58.0742 25.5664C58.0742 25.2461 58.2266 24.9336 58.5312 24.6289C58.8438 24.3164 59.2266 24.0508 59.6797 23.832C60.1406 23.6133 60.5273 23.5039 60.8398 23.5039C61.0195 23.5039 61.1719 23.5508 61.2969 23.6445C61.4219 23.7305 61.5312 23.8828 61.625 24.1016C61.7266 24.3125 61.8242 24.6016 61.918 24.9688C62.0664 25.4922 62.2031 25.8828 62.3281 26.1406C62.4531 26.3906 62.6289 26.6406 62.8555 26.8906C63.0898 27.125 63.3359 27.2422 63.5938 27.2422C63.9062 27.2422 64.1523 27.1211 64.332 26.8789C64.5117 26.6289 64.6016 26.2891 64.6016 25.8594C64.6016 25.1875 64.3633 24.5156 63.8867 23.8438C63.7461 23.6172 63.5898 23.418 63.418 23.2461C63.2539 23.0664 62.8906 22.7266 62.3281 22.2266C62.1562 22.0859 61.8828 21.8398 61.5078 21.4883ZM72.5703 17.668L72.6172 17.5273C73.1328 16.0742 73.5781 15.0508 73.9531 14.457C74.1328 14.1758 74.3828 13.9258 74.7031 13.707C75.3047 13.3242 75.8711 13.1328 76.4023 13.1328C76.7148 13.1328 76.9531 13.2031 77.1172 13.3438C77.2812 13.4844 77.3633 13.6875 77.3633 13.9531C77.3633 14.1328 77.2461 14.5 77.0117 15.0547C76.6133 15.9766 76.3164 16.8398 76.1211 17.6445C76.2539 17.6602 76.3828 17.6836 76.5078 17.7148C76.9766 17.7852 77.2852 17.8672 77.4336 17.9609C77.582 18.0469 77.6562 18.207 77.6562 18.4414C77.6562 18.8555 77.5508 19.2383 77.3398 19.5898C77.1289 19.9414 76.8516 20.1992 76.5078 20.3633C76.25 20.4805 75.832 20.5586 75.2539 20.5977C75.1523 20.9023 75.0391 21.3203 74.9141 21.8516C74.8438 22.3203 74.7656 22.9688 74.6797 23.7969C74.6328 24.1016 74.6094 24.3867 74.6094 24.6523C74.6094 25.8867 75.207 26.5039 76.4023 26.5039H76.4727H76.5078C76.6484 26.5039 76.7188 26.5273 76.7188 26.5742C76.7188 26.6992 76.5859 26.9102 76.3203 27.207C76.0547 27.5039 75.7617 27.7656 75.4414 27.9922C75.0977 28.2266 74.7227 28.4141 74.3164 28.5547C73.9102 28.6953 73.543 28.7656 73.2148 28.7656C72.3945 28.7656 71.7266 28.4883 71.2109 27.9336C70.7031 27.3789 70.4492 26.6445 70.4492 25.7305C70.4492 25.3398 70.5156 24.8281 70.6484 24.1953C70.7891 23.5625 71.0039 22.7148 71.293 21.6523C71.3398 21.4648 71.3906 21.2695 71.4453 21.0664C71.5 20.8555 71.5312 20.7305 71.5391 20.6914C71.2266 20.6836 71.0039 20.6172 70.8711 20.4922C70.7383 20.3672 70.6719 20.1641 70.6719 19.8828C70.6719 19.3906 70.8594 18.9258 71.2344 18.4883C71.6172 18.0508 72.0625 17.7773 72.5703 17.668ZM87.3477 22.9062L87.125 22.9766C86.5625 23.1328 86.1562 23.2109 85.9062 23.2109C85.6016 23.2109 85.4492 23.1328 85.4492 22.9766C85.4492 22.9219 85.5117 22.7773 85.6367 22.543C86.0742 21.8789 86.293 21.2539 86.293 20.668C86.293 20.332 86.2344 20.0273 86.1172 19.7539C86 19.4727 85.8711 19.332 85.7305 19.332C85.6055 19.332 85.4141 19.4648 85.1562 19.7305C84.4297 20.5195 83.8516 21.3281 83.4219 22.1562C83 22.9844 82.7891 23.7227 82.7891 24.3711C82.7891 24.8008 82.875 25.1562 83.0469 25.4375C83.2266 25.7188 83.4492 25.8594 83.7148 25.8594C83.9414 25.8594 84.3633 25.6172 84.9805 25.1328C85.6055 24.6484 86.3047 24.0078 87.0781 23.2109L87.3945 22.9531L87.3477 22.9062ZM86.6445 25.5898V25.6367L86.5977 25.5898C85.8711 26.4414 85.2031 27.1406 84.5938 27.6875C83.9922 28.2266 83.4336 28.6328 82.918 28.9062C82.4102 29.1797 81.9414 29.3164 81.5117 29.3164C80.6367 29.3164 79.9141 29.0234 79.3438 28.4375C78.7734 27.8516 78.4883 27.1094 78.4883 26.2109C78.4883 25.6562 78.6289 25 78.9102 24.2422C79.1914 23.4844 79.5781 22.7422 80.0703 22.0156C80.8906 20.8281 81.9219 19.8203 83.1641 18.9922C84.4453 18.1406 85.6797 17.7148 86.8672 17.7148C87.8672 17.7148 88.6875 17.9219 89.3281 18.3359C89.9766 18.7422 90.3008 19.2578 90.3008 19.8828C90.3008 20.3438 90.1406 20.832 89.8203 21.3477C90.2422 21.3477 90.5078 21.3945 90.6172 21.4883C90.7266 21.5742 90.7812 21.7812 90.7812 22.1094C90.7812 22.0781 90.7617 22.2383 90.7227 22.5898C90.6758 23.3633 90.6523 24.0859 90.6523 24.7578C90.6523 25.1094 90.6562 25.375 90.6641 25.5547C90.6719 25.7344 90.6875 25.9414 90.7109 26.1758C90.7344 26.4102 90.7578 26.5977 90.7812 26.7383C90.8438 27.1055 90.9453 27.4688 91.0859 27.8281C90.6172 28.2891 90.168 28.6289 89.7383 28.8477C89.3086 29.0586 88.8711 29.1641 88.4258 29.1641C87.2227 29.1641 86.6211 28.1562 86.6211 26.1406C86.6211 25.9062 86.6289 25.7227 86.6445 25.5898ZM95.832 25.4258L95.7852 25.6602C95.7852 25.793 95.7695 25.9844 95.7383 26.2344C95.707 26.6172 95.6641 26.9297 95.6094 27.1719C95.5547 27.4141 95.4727 27.6172 95.3633 27.7812C95.2539 27.9375 95.1055 28.1055 94.918 28.2852C94.3477 28.8086 93.7734 29.0703 93.1953 29.0703C92.7266 29.0703 92.3789 28.8984 92.1523 28.5547C91.9336 28.2109 91.8242 27.6562 91.8242 26.8906C91.8242 26.2812 91.8906 25.5312 92.0234 24.6406C92.1641 23.7422 92.332 22.9375 92.5273 22.2266L92.6211 21.9219C92.6211 21.875 92.6445 21.7773 92.6914 21.6289C92.9805 20.5664 93.2461 19.7812 93.4883 19.2734C93.7305 18.7578 94.0234 18.3438 94.3672 18.0312C94.6719 17.7891 95.0156 17.668 95.3984 17.668C95.9531 17.668 96.2891 18.0039 96.4062 18.6758C96.5156 18.582 96.6211 18.4727 96.7227 18.3477C96.9492 18.0742 97.125 17.8945 97.25 17.8086C97.375 17.7148 97.5195 17.668 97.6836 17.668C98.3555 17.668 98.6914 18.332 98.6914 19.6602C98.6914 20.3867 98.6133 21.0898 98.457 21.7695C98.3008 22.4492 98.1016 23.0039 97.8594 23.4336C97.625 23.8633 97.3906 24.0781 97.1562 24.0781C96.8984 24.0781 96.7695 23.5898 96.7695 22.6133C96.7695 22.0977 96.7383 21.6953 96.6758 21.4062C96.6211 21.1094 96.5312 20.8789 96.4062 20.7148C96.1719 21.1523 96.0195 22.1523 95.9492 23.7148C95.8945 24.6211 95.8555 25.1914 95.832 25.4258Z" fill="black"/>
<path d="M11.1367 19.0859H11.0898C10.4883 20.2578 9.86328 21.332 9.21484 22.3086C8.44141 23.4648 7.78906 24.3203 7.25781 24.875C6.96875 25.1484 6.60938 25.3906 6.17969 25.6016C5.75 25.8047 5.37891 25.9062 5.06641 25.9062C4.98828 25.9062 4.88281 25.8828 4.75 25.8359C4.625 25.7812 4.52344 25.707 4.44531 25.6133C4.04688 25.1836 3.72656 24.082 3.48438 22.3086C3.24219 20.5273 3.12109 18.3672 3.12109 15.8281C3.12109 13.7656 3.27344 12.3945 3.57812 11.7148C3.70312 11.4258 3.88281 11.1875 4.11719 11C4.35156 10.8125 4.69922 10.6289 5.16016 10.4492C5.56641 10.2852 5.98438 10.1484 6.41406 10.0391C6.85156 9.92969 7.19531 9.875 7.44531 9.875C7.66406 9.875 7.83594 9.92969 7.96094 10.0391C8.09375 10.1484 8.16016 10.3008 8.16016 10.4961C8.16016 10.5742 8.14453 10.6797 8.11328 10.8125C7.94922 11.5391 7.79688 12.5625 7.65625 13.8828C7.55469 14.7578 7.48438 15.4688 7.44531 16.0156C7.40625 16.5625 7.37109 17.3086 7.33984 18.2539C7.30859 19.1992 7.28906 20.1328 7.28125 21.0547L7.32812 21.1016C7.67969 20.6484 8.05469 20.1055 8.45312 19.4727C8.59375 19.2383 8.73047 19.0195 8.86328 18.8164C8.99609 18.6133 9.14062 18.375 9.29688 18.1016C9.65625 17.4609 9.97656 16.8359 10.2578 16.2266C10.3984 15.9453 10.5234 15.6602 10.6328 15.3711C11.8047 12.7617 12.6289 11.25 13.1055 10.8359C13.3242 10.6406 13.7227 10.457 14.3008 10.2852C14.8867 10.1055 15.4102 10.0156 15.8711 10.0156C16.168 10.0156 16.4141 10.0859 16.6094 10.2266C16.8047 10.3594 16.9023 10.5391 16.9023 10.7656C16.9023 10.9688 16.7969 11.375 16.5859 11.9844C16.1797 13.1641 15.8477 14.4531 15.5898 15.8516C15.3398 17.25 15.2148 18.4961 15.2148 19.5898C15.2148 21.8164 15.6484 22.9297 16.5156 22.9297C16.7656 22.9297 17.0195 22.7422 17.2773 22.3672C17.5352 21.9922 17.7539 21.5156 17.9336 20.9375C18.1211 20.3594 18.2734 19.6875 18.3906 18.9219C18.5156 18.1484 18.5781 17.3555 18.5781 16.543C18.5781 16.0586 18.5547 15.4844 18.5078 14.8203C18.4922 14.6406 18.4844 14.4727 18.4844 14.3164C18.4844 13.457 18.957 12.5898 19.9023 11.7148C20.3633 11.2695 20.707 11.0469 20.9336 11.0469C21.4727 11.0469 21.7422 12.0625 21.7422 14.0938C21.7422 15.5391 21.5859 16.9219 21.2734 18.2422C20.8828 19.8281 20.3438 21.1758 19.6562 22.2852C19.2969 22.8867 18.8672 23.4648 18.3672 24.0195C17.875 24.5742 17.3867 25.0195 16.9023 25.3555C16.2852 25.7852 15.6289 26 14.9336 26C13.6523 26 12.6992 25.5039 12.0742 24.5117C11.4492 23.5117 11.1367 21.9688 11.1367 19.8828V19.0859ZM30.4492 14.2109C31.6133 14.2109 32.1953 14.3477 32.1953 14.6211C32.1953 14.9336 31.9336 15.1016 31.4102 15.125C30.7773 15.1641 30.1875 15.3438 29.6406 15.6641C29.0938 15.9844 28.6055 16.4219 28.1758 16.9766C27.7539 17.5312 27.4219 18.1562 27.1797 18.8516C26.9453 19.5469 26.8281 20.2812 26.8281 21.0547C26.8281 21.9062 27.0273 22.5938 27.4258 23.1172C27.8242 23.6328 28.3438 23.8906 28.9844 23.8906C29.5781 23.8906 30.0977 23.5859 30.543 22.9766C30.9883 22.3672 31.2109 21.6562 31.2109 20.8438C31.2109 20.1797 31.0703 19.5586 30.7891 18.9805C30.5156 18.3945 30.1133 17.9023 29.582 17.5039C29.3555 17.3242 29.2422 17.1953 29.2422 17.1172C29.2422 17.0078 29.4023 16.8398 29.7227 16.6133C30.082 16.3711 30.4844 16.168 30.9297 16.0039C31.375 15.8398 31.75 15.7578 32.0547 15.7578C32.4062 15.7578 32.7383 15.8516 33.0508 16.0391C33.3711 16.2188 33.6523 16.4805 33.8945 16.8242C34.1367 17.1602 34.3203 17.5508 34.4453 17.9961C34.5781 18.4336 34.6445 18.9023 34.6445 19.4023C34.6445 20.2305 34.4883 21.0508 34.1758 21.8633C33.8633 22.668 33.4531 23.3203 32.9453 23.8203C32.2891 24.4531 31.4961 24.9727 30.5664 25.3789C29.6445 25.7773 28.7656 25.9766 27.9297 25.9766C27.1172 25.9766 26.3086 25.8359 25.5039 25.5547C24.707 25.2734 24.0742 24.9023 23.6055 24.4414C22.9805 23.8164 22.668 22.9297 22.668 21.7812C22.668 20.875 22.8906 19.9688 23.3359 19.0625C23.7812 18.1562 24.3828 17.3359 25.1406 16.6016C25.9062 15.8594 26.7461 15.2773 27.6602 14.8555C28.582 14.4258 29.5117 14.2109 30.4492 14.2109ZM46.7969 28.0859C45.7031 29.4922 44.8711 30.1953 44.3008 30.1953C43.8867 30.1953 43.4492 30.0312 42.9883 29.7031C42.5352 29.3828 42.1094 28.9453 41.7109 28.3906C41.3125 27.8438 40.9961 27.25 40.7617 26.6094C40.5273 25.9688 40.4102 25.3594 40.4102 24.7812C40.4102 24.4531 40.4648 24.2344 40.5742 24.125C40.6211 24.0781 40.7266 24 40.8906 23.8906C42.2031 23.0781 42.8594 22.3086 42.8594 21.582C42.8594 21.1992 42.6914 21.0078 42.3555 21.0078C41.9961 21.0078 41.5312 21.3555 40.9609 22.0508C40.3984 22.7383 39.8867 23.582 39.4258 24.582C39.1523 25.2148 38.918 25.6172 38.7227 25.7891C38.543 25.9453 38.2656 26.0234 37.8906 26.0234C37.4766 26.0234 37.1172 25.9102 36.8125 25.6836C36.5078 25.4492 36.2695 25.1211 36.0977 24.6992C35.9336 24.2695 35.8516 23.7812 35.8516 23.2344C35.8516 22.3906 35.957 21.4688 36.168 20.4688C36.3789 19.4688 36.6719 18.4648 37.0469 17.457C37.4297 16.4492 37.8828 15.4648 38.4062 14.5039C38.9297 13.543 39.4766 12.6953 40.0469 11.9609C41.1719 10.5391 42.2695 9.82812 43.3398 9.82812C43.8711 9.82812 44.3438 9.94922 44.7578 10.1914C45.1797 10.4336 45.5039 10.7773 45.7305 11.2227C45.957 11.668 46.0703 12.1875 46.0703 12.7812C46.0703 13.5078 45.8906 14.2344 45.5312 14.9609C45.1719 15.6797 44.7031 16.2695 44.125 16.7305C43.5547 17.1836 42.9805 17.4102 42.4023 17.4102C42.1289 17.4102 41.9922 17.3125 41.9922 17.1172C41.9922 17.0391 42.0625 16.8555 42.2031 16.5664C42.8906 15.207 43.2344 13.6641 43.2344 11.9375C43.2344 11.4922 43.1797 11.2695 43.0703 11.2695C42.9922 11.2695 42.8711 11.3828 42.707 11.6094C42.5508 11.8359 42.3984 12.1133 42.25 12.4414C41.3906 14.3711 40.7695 16.5938 40.3867 19.1094C40.3633 19.2422 40.3359 19.418 40.3047 19.6367C40.2812 19.8555 40.25 20.1055 40.2109 20.3867L40.2578 20.4336C40.5781 19.9805 40.8398 19.6445 41.043 19.4258C41.2539 19.1992 41.5312 18.957 41.875 18.6992C42.9297 17.8711 43.9141 17.457 44.8281 17.457C45.2969 17.457 45.6797 17.5938 45.9766 17.8672C46.2812 18.1406 46.4336 18.4922 46.4336 18.9219C46.4336 19.9766 46.0977 21.0625 45.4258 22.1797C45.2383 22.5078 45.0195 22.832 44.7695 23.1523C44.5273 23.4727 44.1758 23.8867 43.7148 24.3945C43.9961 24.8711 44.3164 25.3516 44.6758 25.8359C44.9961 26.2578 45.3984 26.6797 45.8828 27.1016C46.3047 27.4531 46.6094 27.7812 46.7969 28.0859Z" fill="white"/>
</svg>
