<svg width="18" height="18" viewBox="0 0 18 18" fill="none" xmlns="http://www.w3.org/2000/svg">
<g clip-path="url(#clip0_85_151)">
<path d="M9.74998 0.750099C9.74998 0.551187 9.829 0.360421 9.96965 0.219769C10.1103 0.0791167 10.3011 9.9093e-05 10.5 9.9093e-05C12.4884 0.00228279 14.3948 0.79316 15.8009 2.19921C17.2069 3.60526 17.9978 5.51165 18 7.5001C18 7.69901 17.921 7.88978 17.7803 8.03043C17.6396 8.17108 17.4489 8.2501 17.25 8.2501C17.0511 8.2501 16.8603 8.17108 16.7196 8.03043C16.579 7.88978 16.5 7.69901 16.5 7.5001C16.4982 5.90935 15.8655 4.38426 14.7406 3.25943C13.6158 2.1346 12.0907 1.50189 10.5 1.5001C10.3011 1.5001 10.1103 1.42108 9.96965 1.28043C9.829 1.13978 9.74998 0.949012 9.74998 0.750099V0.750099ZM10.5 4.5001C11.2956 4.5001 12.0587 4.81617 12.6213 5.37878C13.1839 5.94139 13.5 6.70445 13.5 7.5001C13.5 7.69901 13.579 7.88978 13.7196 8.03043C13.8603 8.17108 14.0511 8.2501 14.25 8.2501C14.4489 8.2501 14.6396 8.17108 14.7803 8.03043C14.921 7.88978 15 7.69901 15 7.5001C14.9988 6.30699 14.5243 5.16309 13.6806 4.31943C12.837 3.47578 11.6931 3.00129 10.5 3.0001C10.3011 3.0001 10.1103 3.07912 9.96965 3.21977C9.829 3.36042 9.74998 3.55119 9.74998 3.7501C9.74998 3.94901 9.829 4.13978 9.96965 4.28043C10.1103 4.42108 10.3011 4.5001 10.5 4.5001V4.5001ZM17.3197 12.5543C17.7544 12.9902 17.9984 13.5806 17.9984 14.1961C17.9984 14.8116 17.7544 15.402 17.3197 15.8379L16.6372 16.6246C10.4947 22.5054 -4.45276 7.5616 1.33724 1.3996L2.19974 0.649599C2.63606 0.227107 3.22118 -0.0066141 3.82851 -0.000999776C4.43584 0.00461455 5.01654 0.249113 5.44498 0.679599C5.46823 0.702849 6.85798 2.5081 6.85798 2.5081C7.27035 2.94132 7.49991 3.5168 7.49893 4.1149C7.49795 4.71301 7.26652 5.28773 6.85273 5.7196L5.98423 6.8116C6.46487 7.97943 7.17153 9.04079 8.06361 9.93467C8.95569 10.8286 10.0156 11.5374 11.1825 12.0203L12.2812 11.1466C12.7132 10.7331 13.2878 10.502 13.8857 10.5011C14.4836 10.5003 15.0589 10.7298 15.492 11.1421C15.492 11.1421 17.2965 12.5311 17.3197 12.5543ZM16.2877 13.6449C16.2877 13.6449 14.493 12.2641 14.4697 12.2408C14.3152 12.0876 14.1064 12.0017 13.8888 12.0017C13.6713 12.0017 13.4625 12.0876 13.308 12.2408C13.2877 12.2618 11.775 13.4671 11.775 13.4671C11.673 13.5482 11.5517 13.6014 11.423 13.6214C11.2942 13.6414 11.1625 13.6275 11.0407 13.5811C9.52907 13.0183 8.15603 12.1372 7.01461 10.9974C5.87318 9.85766 4.99003 8.48592 4.42498 6.9751C4.37488 6.85169 4.35855 6.71717 4.37766 6.58535C4.39677 6.45354 4.45064 6.3292 4.53373 6.2251C4.53373 6.2251 5.73898 4.7116 5.75923 4.6921C5.91243 4.53759 5.99839 4.32881 5.99839 4.11122C5.99839 3.89364 5.91243 3.68486 5.75923 3.53035C5.73598 3.50785 4.35523 1.7116 4.35523 1.7116C4.19841 1.57098 3.99374 1.49567 3.78317 1.50111C3.5726 1.50655 3.37209 1.59232 3.22274 1.74085L2.36024 2.49085C-1.87126 7.57885 11.082 19.8136 15.5407 15.6001L16.224 14.8126C16.3841 14.6643 16.4802 14.4595 16.4921 14.2416C16.504 14.0237 16.4307 13.8097 16.2877 13.6449V13.6449Z" fill="white"/>
</g>
<defs>
<clipPath id="clip0_85_151">
<rect width="18" height="18" fill="white"/>
</clipPath>
</defs>
</svg>
